<svg xmlns="http://www.w3.org/2000/svg" xmlns:xlink="http://www.w3.org/1999/xlink" aria-hidden="true" role="img" class="iconify iconify--uil" width="32" height="32" preserveAspectRatio="xMidYMid meet" viewBox="0 0 24 24"><path d="M20.71 9.29l-6-6a1 1 0 0 0-.32-.21A1.09 1.09 0 0 0 14 3H6a3 3 0 0 0-3 3v12a3 3 0 0 0 3 3h12a3 3 0 0 0 3-3v-8a1 1 0 0 0-.29-.71zM9 5h4v2H9zm6 14H9v-3a1 1 0 0 1 1-1h4a1 1 0 0 1 1 1zm4-1a1 1 0 0 1-1 1h-1v-3a3 3 0 0 0-3-3h-4a3 3 0 0 0-3 3v3H6a1 1 0 0 1-1-1V6a1 1 0 0 1 1-1h1v3a1 1 0 0 0 1 1h6a1 1 0 0 0 1-1V6.41l4 4z" fill="currentColor"></path></svg>
