<svg width="32" height="32" viewBox="0 0 32 32" fill="none" xmlns="http://www.w3.org/2000/svg">
<path d="M9.96 28.6667C5.6 26.5733 2.48 22.3467 2 17.3333H0C0.666667 25.5467 7.54667 32 15.9333 32C16.24 32 16.52 32 16.8133 31.96L11.7333 26.8667L9.96 28.6667ZM16.0667 0C15.76 0 15.48 0 15.1867 0.0533333L20.2667 5.13333L22.04 3.33333C26.4 5.42667 29.52 9.65333 30 14.6667H32C31.3333 6.45333 24.4533 0 16.0667 0ZM21.3333 18.6667H24V10.6667C24 9.95942 23.719 9.28115 23.219 8.78105C22.7189 8.28095 22.0406 8 21.3333 8H13.3333V10.6667H21.3333V18.6667ZM10.6667 21.3333V5.33333H8V8H5.33333V10.6667H8V21.3333C8 22.0406 8.28095 22.7189 8.78105 23.219C9.28115 23.719 9.95942 24 10.6667 24H21.3333V26.6667H24V24H26.6667V21.3333H10.6667Z" fill="url(#paint0_linear)"/>
<defs>
<linearGradient id="paint0_linear" x1="16" y1="0" x2="16" y2="32" gradientUnits="userSpaceOnUse">
<stop stop-color="#FC5C7D"/>
<stop offset="0.541667" stop-color="#E3C1A9"/>
<stop offset="1" stop-color="#E59FE7"/>
</linearGradient>
</defs>
</svg>
